<?xml version="1.0" encoding="UTF-8" standalone="no"?>
<!-- Created with Inkscape (http://www.inkscape.org/) -->
<svg xmlns:dc="http://purl.org/dc/elements/1.1/" xmlns:cc="http://creativecommons.org/ns#" xmlns:rdf="http://www.w3.org/1999/02/22-rdf-syntax-ns#" xmlns:svg="http://www.w3.org/2000/svg" xmlns="http://www.w3.org/2000/svg" xmlns:sodipodi="http://sodipodi.sourceforge.net/DTD/sodipodi-0.dtd" xmlns:inkscape="http://www.inkscape.org/namespaces/inkscape" width="256" height="256" id="svg2466" sodipodi:version="0.32" inkscape:version="0.46" version="1.0" sodipodi:docname="freenukum.svg" inkscape:output_extension="org.inkscape.output.svg.inkscape">
  <defs id="defs2468">
    <inkscape:perspective sodipodi:type="inkscape:persp3d" inkscape:vp_x="0 : 300 : 1" inkscape:vp_y="0 : 1000 : 0" inkscape:vp_z="800 : 300 : 1" inkscape:persp3d-origin="400 : 200 : 1" id="perspective2474"/>
  </defs>
  <sodipodi:namedview id="base" pagecolor="#ffffff" bordercolor="#666666" borderopacity="1.0" inkscape:pageopacity="0.0" inkscape:pageshadow="2" inkscape:zoom="2" inkscape:cx="113.33333" inkscape:cy="124.97001" inkscape:current-layer="layer1" inkscape:document-units="px" showgrid="false" inkscape:window-width="1225" inkscape:window-height="717" inkscape:window-x="47" inkscape:window-y="29"/>
  <metadata id="metadata2471">
    <rdf:RDF>
      <cc:Work rdf:about="">
        <dc:format>image/svg+xml</dc:format>
        <dc:type rdf:resource="http://purl.org/dc/dcmitype/StillImage"/>
        <dc:title>freenukum</dc:title>
        <dc:creator>
          <cc:Agent>
            <dc:title>George Vlahavas (vlahavas~at~gmail.com)</dc:title>
          </cc:Agent>
        </dc:creator>
        <dc:description>Licenced under the GPL v2 or newer.</dc:description>
        <cc:license rdf:resource=""/>
      </cc:Work>
    </rdf:RDF>
  </metadata>
  <g id="layer1" inkscape:label="Layer 1" inkscape:groupmode="layer" transform="translate(-232.886, -254.985)">
    <path sodipodi:type="arc" style="fill: rgb(252, 251, 64); fill-opacity: 1; fill-rule: nonzero; stroke: rgb(255, 255, 0); stroke-width: 5.07071; stroke-linejoin: round; stroke-miterlimit: 4; stroke-dasharray: none; stroke-dashoffset: 0pt; stroke-opacity: 1;" id="path2477" sodipodi:cx="156.75" sodipodi:cy="127.75" sodipodi:rx="96.75" sodipodi:ry="96.75" d="M 253.5,127.75 A 96.75,96.75 0 1 1 60,127.75 A 96.75,96.75 0 1 1 253.5,127.75 z" transform="matrix(1.1873, 0, 0, 1.17179, 174.278, 232.789)"/>
    <path style="fill: rgb(0, 0, 0);" d="M 346.93294,505.13971 C 298.81005,499.75991 258.07689,467.94873 241.98726,423.18076 C 218.83487,358.76125 254.21449,287.40127 320.26974,265.2866 C 333.61153,260.81989 344.89345,259.05023 360.43294,258.98669 C 382.03037,258.89837 399.3857,263.02068 418.43294,272.76308 C 452.70302,290.29175 475.84461,320.61909 483.99332,358.68076 C 486.35332,369.704 486.38087,394.77347 484.04472,405.44815 C 473.04148,455.7259 435.38235,493.10965 385.66661,503.10687 C 373.79526,505.49405 357.67187,506.34024 346.93294,505.13971 z M 383.04304,495.70723 C 405.95161,491.32767 427.56315,479.815 444.16322,463.14793 C 484.14818,423.00158 489.39473,361.3521 456.73423,315.43244 C 446.77118,301.42469 429.49145,286.67797 413.93294,278.90533 C 406.49296,275.1885 393.04013,270.64862 383.43294,268.61259 C 373.33317,266.47217 350.43181,266.17967 340.43294,268.06337 C 314.15726,273.0135 292.91578,284.48919 274.80639,303.51804 C 234.32024,346.05977 231.87066,408.68385 268.88725,454.84248 C 287.07103,477.51714 315.74651,493.26665 345.93294,497.15848 C 355.12457,498.34352 372.88649,497.64891 383.04304,495.70723 z M 340.93294,490.71794 C 325.54688,487.8994 303.43294,479.04568 303.43294,475.70414 C 303.43294,474.21966 341.82412,412.67507 343.33112,411.74369 C 343.73366,411.4949 346.45511,411.99257 349.37877,412.84961 C 356.93646,415.06509 371.2626,414.30734 377.87049,411.3426 C 381.86361,409.55103 383.04364,409.3715 384.03976,410.40403 C 385.79766,412.22618 423.43294,471.32688 423.43294,472.26525 C 423.43294,474.52487 407.74798,482.65182 395.93294,486.51402 C 379.2752,491.95923 357.0023,493.66166 340.93294,490.71794 z M 352.93294,401.51913 C 345.32139,397.50642 341.43294,391.13668 341.43294,382.68076 C 341.43294,373.80713 345.82304,367.00485 353.66447,363.72849 C 370.30906,356.77394 387.24003,375.87473 378.88461,392.18076 C 377.09962,395.66427 371.47967,400.85197 368.11784,402.11943 C 364.04778,403.6539 356.40954,403.35194 352.93294,401.51913 z M 278.43294,385.17253 C 262.20794,384.86027 248.82044,384.50938 248.68294,384.39278 C 247.90371,383.73194 248.64533,372.20675 249.95901,364.56175 C 253.99806,341.05647 264.6653,320.90468 282.03981,303.95696 C 290.05749,296.13623 293.43287,293.52766 302.74587,287.95485 C 308.53774,284.48905 309.75571,284.08808 310.87264,285.27941 C 312.55773,287.07676 343.43294,348.33864 343.43294,349.88482 C 343.43294,350.52427 341.2101,353.32956 338.49329,356.1188 C 332.80989,361.95373 327.88536,371.31279 326.44944,379.0081 C 325.9027,381.93814 325.19877,384.75064 324.88514,385.2581 C 324.57151,385.76556 320.62896,386.08165 316.12392,385.96051 C 311.61888,385.83937 294.65794,385.48478 278.43294,385.17253 z M 397.91228,381.91527 C 397.66698,381.23629 396.77083,378.67497 395.92083,376.22345 C 392.92326,367.57805 386.23954,359.26116 376.96597,352.63698 L 374.10477,350.59321 L 389.3992,316.38698 C 400.4225,291.73323 405.14594,282.18469 406.31329,282.19483 C 408.5591,282.21433 421.23035,289.23854 428.17151,294.31175 C 452.79922,312.31187 470.98847,345.04419 471.72092,372.68076 L 471.93294,380.68076 L 461.93294,381.30457 C 456.43294,381.64767 439.87864,382.2032 425.14561,382.53908 C 404.34988,383.01318 398.25852,382.87365 397.91228,381.91527 z" id="path2453"/>
  </g>
</svg>